<svg width="583" height="auto" viewBox="0 0 583.842 251.727" xmlns="http://www.w3.org/2000/svg"><g id="svgGroup" stroke-linecap="round" fill-rule="evenodd" font-size="9pt" stroke="#ffffff" stroke-width="0.25mm" fill="#ffffff" style="stroke:#ffffff;stroke-width:0.25mm;fill:#ffffff"><path d="M 205.2 201.002 L 205.2 117.602 A 54.116 54.116 0 0 1 213.199 87.666 C 220.051 77.333 231.56 70.502 248.7 70.502 A 46.058 46.058 0 0 1 262.275 72.34 C 273.059 75.663 279.377 83.371 282.026 94.436 A 59.774 59.774 0 0 1 283.5 108.302 L 283.5 201.002 L 303.3 201.002 L 303.3 103.802 A 67.502 67.502 0 0 0 300.636 84.176 C 294.556 64.154 278.488 54.002 256.8 54.002 A 54.324 54.324 0 0 0 235.452 58.105 A 53.171 53.171 0 0 0 205.2 97.202 L 205.2 0.002 L 185.4 0.002 L 185.4 201.002 L 205.2 201.002 Z M 19.8 201.002 L 19.8 117.902 L 56.1 117.902 C 75.6 117.902 88.2 124.802 95.7 138.302 L 132.6 201.002 L 155.7 201.002 L 118.5 138.302 A 61.493 61.493 0 0 0 112.044 129.014 C 108.799 125.207 105.306 122.257 101.52 120.005 A 40.378 40.378 0 0 0 93.6 116.402 A 76.779 76.779 0 0 0 120.879 109.499 C 137.66 101.449 148.356 86.862 150.285 66.732 A 70.534 70.534 0 0 0 150.6 60.002 C 150.6 20.702 122.7 0.002 83.1 0.002 L 0 0.002 L 0 201.002 L 19.8 201.002 Z M 397.5 218.102 L 458.4 57.002 L 437.7 57.002 L 401.7 155.702 L 391.2 185.402 L 381 155.702 L 344.7 57.002 L 323.7 57.002 L 376.5 196.202 L 387.6 195.902 L 382.2 210.302 A 68.273 68.273 0 0 1 378.427 219.09 C 376.843 222.112 375.144 224.619 373.317 226.667 A 22.046 22.046 0 0 1 355.8 234.302 C 344.963 234.302 337.563 228.843 331.941 220.413 A 59.96 59.96 0 0 1 328.5 214.502 L 317.4 228.902 C 322.8 239.702 336 251.702 355.5 251.702 A 38.815 38.815 0 0 0 388.208 235.813 C 391.832 231.047 394.932 225.163 397.5 218.102 Z M 541.8 123.902 L 522.6 119.102 A 145.855 145.855 0 0 1 511.071 115.88 C 498.61 111.73 491.806 106.38 490.903 96.056 A 28.169 28.169 0 0 1 490.8 93.602 A 21.326 21.326 0 0 1 494.266 81.475 C 498.894 74.585 507.826 70.822 519.036 70.522 A 54.793 54.793 0 0 1 520.5 70.502 A 55.033 55.033 0 0 1 538.322 73.231 C 550.645 77.433 559.341 86.394 564.121 99.444 A 58.066 58.066 0 0 1 564.6 100.802 L 579.6 89.702 C 572.4 69.302 552.3 54.002 521.7 54.002 C 502.905 54.002 488.075 60.25 479.719 71.147 A 37.601 37.601 0 0 0 472.2 94.502 C 472.2 120.302 493.5 129.902 514.2 135.002 L 533.7 139.502 C 553.2 144.002 566.1 149.402 566.1 164.402 C 566.1 177.073 557.109 184.606 542.744 186.64 A 60.36 60.36 0 0 1 534.3 187.202 C 516.689 187.202 503.143 181.269 494.195 172.262 A 43.142 43.142 0 0 1 482.7 151.502 L 468 162.602 A 58.464 58.464 0 0 0 513.545 201.804 A 91.017 91.017 0 0 0 533.7 204.002 A 67.633 67.633 0 0 0 561.285 198.655 C 573.406 193.191 582.049 183.42 583.563 168.797 A 45.568 45.568 0 0 0 583.8 164.102 A 32.67 32.67 0 0 0 569.901 135.676 C 566.367 133.089 562.105 130.79 557.054 128.745 A 115.275 115.275 0 0 0 541.8 123.902 Z M 80.4 101.702 L 19.8 101.702 L 19.8 17.402 L 80.1 17.402 C 108.6 17.402 130.5 28.802 130.5 60.002 C 130.5 90.302 108.6 101.702 80.4 101.702 Z" vector-effect="non-scaling-stroke"/></g></svg>